<svg width="33" height="21" viewBox="0 0 33 21" fill="none" xmlns="http://www.w3.org/2000/svg">
<path d="M28.65 17.925C29.075 18.15 29.45 18.1 29.775 17.775C30.1 17.45 30.15 17.075 29.925 16.65L27.75 12.6L26.175 16.65L28.65 17.925ZM21.15 16.5H22.95L26.55 7.575C26.625 7.375 26.6062 7.20625 26.4937 7.06875C26.3813 6.93125 26.25 6.825 26.1 6.75L23.1 5.55C22.875 5.475 22.6562 5.5 22.4438 5.625C22.2313 5.75 22.1 5.925 22.05 6.15L21.15 16.5ZM10.05 16.5H11.85L10.95 6.15C10.9 5.875 10.7687 5.6875 10.5562 5.5875C10.3438 5.4875 10.125 5.475 9.9 5.55L6.9 6.75C6.7 6.825 6.55625 6.93125 6.46875 7.06875C6.38125 7.20625 6.375 7.375 6.45 7.575L10.05 16.5ZM4.35 17.925L6.825 16.65L5.25 12.6L3.075 16.65C2.85 17.075 2.9 17.45 3.225 17.775C3.55 18.1 3.925 18.15 4.35 17.925ZM14.85 16.5H18.15L19.275 3.825C19.325 3.6 19.2688 3.40625 19.1063 3.24375C18.9438 3.08125 18.75 3 18.525 3H14.475C14.275 3 14.0938 3.08125 13.9312 3.24375C13.7687 3.40625 13.7 3.6 13.725 3.825L14.85 16.5ZM3.675 21C2.625 21 1.75 20.6063 1.05 19.8188C0.35 19.0312 0 18.1 0 17.025C0 16.725 0.04375 16.4312 0.13125 16.1437C0.21875 15.8562 0.325 15.575 0.45 15.3L3.75 9C3.4 8 3.4125 7.0125 3.7875 6.0375C4.1625 5.0625 4.825 4.375 5.775 3.975L8.775 2.775C9.125 2.65 9.475 2.5625 9.825 2.5125C10.175 2.4625 10.525 2.475 10.875 2.55C11.225 1.825 11.7125 1.21875 12.3375 0.73125C12.9625 0.24375 13.675 0 14.475 0H18.525C19.325 0 20.0375 0.24375 20.6625 0.73125C21.2875 1.21875 21.775 1.825 22.125 2.55C22.475 2.5 22.825 2.49375 23.175 2.53125C23.525 2.56875 23.875 2.65 24.225 2.775L27.225 3.975C28.225 4.375 28.925 5.0625 29.325 6.0375C29.725 7.0125 29.7 7.975 29.25 8.925L32.55 15.225C32.7 15.5 32.8125 15.7875 32.8875 16.0875C32.9625 16.3875 33 16.7 33 17.025C33 18.15 32.6188 19.0938 31.8563 19.8563C31.0938 20.6188 30.15 21 29.025 21C28.75 21 28.475 20.9688 28.2 20.9062C27.925 20.8438 27.65 20.75 27.375 20.625L25.05 19.5H7.875L5.775 20.625C5.45 20.8 5.10625 20.9062 4.74375 20.9438C4.38125 20.9813 4.025 21 3.675 21Z" fill="#8E24AA"/>
</svg>
