<svg width="80" height="48" viewBox="0 0 80 48" fill="none" xmlns="http://www.w3.org/2000/svg">
<path d="M76.4 47.8C77.5333 48.4 78.5333 48.2667 79.4 47.4C80.2667 46.5333 80.4 45.5333 79.8 44.4L74 33.6L69.8 44.4L76.4 47.8ZM56.4 44H61.2L70.8 20.2C71 19.6667 70.95 19.2167 70.65 18.85C70.35 18.4833 70 18.2 69.6 18L61.6 14.8C61 14.6 60.4167 14.6667 59.85 15C59.2833 15.3333 58.9333 15.8 58.8 16.4L56.4 44ZM26.8 44H31.6L29.2 16.4C29.0667 15.6667 28.7167 15.1667 28.15 14.9C27.5833 14.6333 27 14.6 26.4 14.8L18.4 18C17.8667 18.2 17.4833 18.4833 17.25 18.85C17.0167 19.2167 17 19.6667 17.2 20.2L26.8 44ZM11.6 47.8L18.2 44.4L14 33.6L8.2 44.4C7.6 45.5333 7.73333 46.5333 8.6 47.4C9.46667 48.2667 10.4667 48.4 11.6 47.8ZM39.6 44H48.4L51.4 10.2C51.5333 9.6 51.3833 9.08333 50.95 8.65C50.5167 8.21667 50 8 49.4 8H38.6C38.0667 8 37.5833 8.21667 37.15 8.65C36.7167 9.08333 36.5333 9.6 36.6 10.2L39.6 44ZM9.8 56C7 56 4.66667 54.95 2.8 52.85C0.933333 50.75 0 48.2667 0 45.4C0 44.6 0.116667 43.8167 0.35 43.05C0.583333 42.2833 0.866667 41.5333 1.2 40.8L10 24C9.06667 21.3333 9.1 18.7 10.1 16.1C11.1 13.5 12.8667 11.6667 15.4 10.6L23.4 7.4C24.3333 7.06667 25.2667 6.83333 26.2 6.7C27.1333 6.56667 28.0667 6.6 29 6.8C29.9333 4.86667 31.2333 3.25 32.9 1.95C34.5667 0.65 36.4667 0 38.6 0H49.4C51.5333 0 53.4333 0.65 55.1 1.95C56.7667 3.25 58.0667 4.86667 59 6.8C59.9333 6.66667 60.8667 6.65 61.8 6.75C62.7333 6.85 63.6667 7.06667 64.6 7.4L72.6 10.6C75.2667 11.6667 77.1333 13.5 78.2 16.1C79.2667 18.7 79.2 21.2667 78 23.8L86.8 40.6C87.2 41.3333 87.5 42.1 87.7 42.9C87.9 43.7 88 44.5333 88 45.4C88 48.4 86.9833 50.9167 84.95 52.95C82.9167 54.9833 80.4 56 77.4 56C76.6667 56 75.9333 55.9167 75.2 55.75C74.4667 55.5833 73.7333 55.3333 73 55L66.8 52H21L15.4 55C14.5333 55.4667 13.6167 55.75 12.65 55.85C11.6833 55.95 10.7333 56 9.8 56Z" fill="#d9dada"/>
</svg>
