<svg width="27" height="33" viewBox="0 0 27 33" fill="none" xmlns="http://www.w3.org/2000/svg">
<path d="M13.575 33L6.525 19.5C4.75 19.575 3.21875 19.0625 1.93125 17.9625C0.64375 16.8625 0 15.375 0 13.5C0 12.225 0.36875 11.075 1.10625 10.05C1.84375 9.025 2.775 8.3 3.9 7.875C4.35 5.6 5.46875 3.71875 7.25625 2.23125C9.04375 0.74375 11.125 0 13.5 0C15.875 0 17.9562 0.74375 19.7437 2.23125C21.5312 3.71875 22.65 5.6 23.1 7.875C24.225 8.3 25.1562 9.025 25.8937 10.05C26.6312 11.075 27 12.225 27 13.5C27 15.375 26.3375 16.8625 25.0125 17.9625C23.6875 19.0625 22.2 19.575 20.55 19.5L13.575 33ZM6 16.5C6.375 16.5 6.74375 16.4375 7.10625 16.3125C7.46875 16.1875 7.8 15.975 8.1 15.675L8.925 14.85L9.9 15.45C10.425 15.8 10.9937 16.0625 11.6062 16.2375C12.2188 16.4125 12.85 16.5 13.5 16.5C14.15 16.5 14.7812 16.4125 15.3938 16.2375C16.0063 16.0625 16.575 15.8 17.1 15.45L18.075 14.85L18.9 15.675C19.2 15.975 19.5312 16.1875 19.8937 16.3125C20.2562 16.4375 20.625 16.5 21 16.5C21.825 16.5 22.5312 16.2062 23.1187 15.6187C23.7062 15.0312 24 14.325 24 13.5C24 12.75 23.7625 12.0938 23.2875 11.5312C22.8125 10.9688 22.2 10.625 21.45 10.5L20.325 10.35L20.25 9.15C20.125 7.425 19.4125 5.96875 18.1125 4.78125C16.8125 3.59375 15.275 3 13.5 3C11.725 3 10.1875 3.59375 8.8875 4.78125C7.5875 5.96875 6.875 7.425 6.75 9.15L6.675 10.35L5.55 10.575C4.8 10.725 4.1875 11.0625 3.7125 11.5875C3.2375 12.1125 3 12.75 3 13.5C3 14.325 3.29375 15.0312 3.88125 15.6187C4.46875 16.2062 5.175 16.5 6 16.5ZM13.575 26.475L17.625 18.6C17.025 18.9 16.375 19.125 15.675 19.275C14.975 19.425 14.25 19.5 13.5 19.5C12.825 19.5 12.1438 19.425 11.4563 19.275C10.7688 19.125 10.1 18.9 9.45 18.6L13.575 26.475Z" fill="#D81B60"/>
</svg>
