<svg width="64" height="80" viewBox="0 0 64 80" fill="none" xmlns="http://www.w3.org/2000/svg">
<path d="M36.2 88L17.4 52C12.6667 52.2 8.58333 50.8333 5.15 47.9C1.71667 44.9667 0 41 0 36C0 32.6 0.983333 29.5333 2.95 26.8C4.91667 24.0667 7.4 22.1333 10.4 21C11.6 14.9333 14.5833 9.91667 19.35 5.95C24.1167 1.98333 29.6667 0 36 0C42.3333 0 47.8833 1.98333 52.65 5.95C57.4167 9.91667 60.4 14.9333 61.6 21C64.6 22.1333 67.0833 24.0667 69.05 26.8C71.0167 29.5333 72 32.6 72 36C72 41 70.2333 44.9667 66.7 47.9C63.1667 50.8333 59.2 52.2 54.8 52L36.2 88ZM16 44C17 44 17.9833 43.8333 18.95 43.5C19.9167 43.1667 20.8 42.6 21.6 41.8L23.8 39.6L26.4 41.2C27.8 42.1333 29.3167 42.8333 30.95 43.3C32.5833 43.7667 34.2667 44 36 44C37.7333 44 39.4167 43.7667 41.05 43.3C42.6833 42.8333 44.2 42.1333 45.6 41.2L48.2 39.6L50.4 41.8C51.2 42.6 52.0833 43.1667 53.05 43.5C54.0167 43.8333 55 44 56 44C58.2 44 60.0833 43.2167 61.65 41.65C63.2167 40.0833 64 38.2 64 36C64 34 63.3667 32.25 62.1 30.75C60.8333 29.25 59.2 28.3333 57.2 28L54.2 27.6L54 24.4C53.6667 19.8 51.7667 15.9167 48.3 12.75C44.8333 9.58333 40.7333 8 36 8C31.2667 8 27.1667 9.58333 23.7 12.75C20.2333 15.9167 18.3333 19.8 18 24.4L17.8 27.6L14.8 28.2C12.8 28.6 11.1667 29.5 9.9 30.9C8.63333 32.3 8 34 8 36C8 38.2 8.78333 40.0833 10.35 41.65C11.9167 43.2167 13.8 44 16 44ZM36.2 70.6L47 49.6C45.4 50.4 43.6667 51 41.8 51.4C39.9333 51.8 38 52 36 52C34.2 52 32.3833 51.8 30.55 51.4C28.7167 51 26.9333 50.4 25.2 49.6L36.2 70.6Z" fill="#d9dada"/>
</svg>
