<svg width="40" height="41" viewBox="0 0 60 61" fill="none" xmlns="http://www.w3.org/2000/svg">
<path d="M9.6 58.3692C6.6 55.3692 4.25 51.9026 2.55 47.9692C0.85 44.0359 0 39.9692 0 35.7692C0 31.5692 0.8 27.4192 2.4 23.3192C4 19.2192 6.6 15.3692 10.2 11.7692C12.5333 9.4359 15.4167 7.4359 18.85 5.76923C22.2833 4.10256 26.35 2.7859 31.05 1.81923C35.75 0.852564 41.1167 0.269231 47.15 0.0692308C53.1833 -0.130769 59.9333 0.102564 67.4 0.769231C67.9333 7.8359 68.1 14.3359 67.9 20.2692C67.7 26.2026 67.15 31.5526 66.25 36.3192C65.35 41.0859 64.0833 45.2526 62.45 48.8192C60.8167 52.3859 58.8 55.3692 56.4 57.7692C52.8667 61.3026 49.1167 63.8859 45.15 65.5192C41.1833 67.1526 37.1333 67.9692 33 67.9692C28.6667 67.9692 24.4333 67.1192 20.3 65.4192C16.1667 63.7192 12.6 61.3692 9.6 58.3692ZM20.8 56.7692C22.7333 57.9026 24.7167 58.7192 26.75 59.2192C28.7833 59.7192 30.8667 59.9692 33 59.9692C36.0667 59.9692 39.1 59.3526 42.1 58.1192C45.1 56.8859 47.9667 54.9026 50.7 52.1692C51.9 50.9692 53.1167 49.2859 54.35 47.1192C55.5833 44.9526 56.65 42.1192 57.55 38.6192C58.45 35.1192 59.1333 30.8859 59.6 25.9192C60.0667 20.9526 60.1333 15.0359 59.8 8.16923C56.5333 8.0359 52.85 7.9859 48.75 8.01923C44.65 8.05256 40.5667 8.36923 36.5 8.96923C32.4333 9.56923 28.5667 10.5359 24.9 11.8692C21.2333 13.2026 18.2333 15.0359 15.9 17.3692C12.9 20.3692 10.8333 23.3359 9.7 26.2692C8.56667 29.2026 8 32.0359 8 34.7692C8 38.7026 8.75 42.1526 10.25 45.1192C11.75 48.0859 13.0667 50.1692 14.2 51.3692C17 46.0359 20.7 40.9192 25.3 36.0192C29.9 31.1192 35.2667 27.1026 41.4 23.9692C36.6 28.1692 32.4167 32.9192 28.85 38.2192C25.2833 43.5192 22.6 49.7026 20.8 56.7692Z" fill="#d9dada"/>
</svg>
