<svg width="19" height="19" viewBox="0 0 19 19" fill="none" xmlns="http://www.w3.org/2000/svg">
<path d="M3.66667 11H11V9.16667H3.66667V11ZM3.66667 8.25H14.6667V6.41667H3.66667V8.25ZM3.66667 5.5H14.6667V3.66667H3.66667V5.5ZM0 18.3333V1.83333C0 1.32917 0.179514 0.897569 0.538542 0.538542C0.897569 0.179514 1.32917 0 1.83333 0H16.5C17.0042 0 17.4358 0.179514 17.7948 0.538542C18.1538 0.897569 18.3333 1.32917 18.3333 1.83333V12.8333C18.3333 13.3375 18.1538 13.7691 17.7948 14.1281C17.4358 14.4872 17.0042 14.6667 16.5 14.6667H3.66667L0 18.3333ZM2.8875 12.8333H16.5V1.83333H1.83333V13.8646L2.8875 12.8333ZM1.83333 12.8333V1.83333V12.8333Z" fill="#475569"/>
</svg>
