<svg width="17" height="17" viewBox="0 0 17 17" fill="none" xmlns="http://www.w3.org/2000/svg">
<path d="M15.5375 16.5C13.6278 16.5 11.741 16.0837 9.87708 15.251C8.0132 14.4184 6.31736 13.2382 4.78958 11.7104C3.26181 10.1826 2.0816 8.48681 1.24896 6.62292C0.416319 4.75903 0 2.87222 0 0.9625C0 0.6875 0.0916667 0.458333 0.275 0.275C0.458333 0.0916667 0.6875 0 0.9625 0H4.675C4.88889 0 5.07986 0.0725694 5.24792 0.217708C5.41597 0.362847 5.51528 0.534722 5.54583 0.733333L6.14167 3.94167C6.17222 4.18611 6.16458 4.39236 6.11875 4.56042C6.07292 4.72847 5.98889 4.87361 5.86667 4.99583L3.64375 7.24167C3.94931 7.80694 4.31215 8.35312 4.73229 8.88021C5.15243 9.40729 5.61458 9.91528 6.11875 10.4042C6.59236 10.8778 7.08889 11.317 7.60833 11.7219C8.12778 12.1267 8.67778 12.4972 9.25833 12.8333L11.4125 10.6792C11.55 10.5417 11.7295 10.4385 11.951 10.3698C12.1726 10.301 12.3903 10.2819 12.6042 10.3125L15.7667 10.9542C15.9806 11.0153 16.1562 11.126 16.2938 11.2865C16.4313 11.4469 16.5 11.6264 16.5 11.825V15.5375C16.5 15.8125 16.4083 16.0417 16.225 16.225C16.0417 16.4083 15.8125 16.5 15.5375 16.5ZM2.77292 5.5L4.28542 3.9875L3.89583 1.83333H1.85625C1.93264 2.45972 2.03958 3.07847 2.17708 3.68958C2.31458 4.30069 2.51319 4.90417 2.77292 5.5ZM10.9771 13.7042C11.5729 13.9639 12.1802 14.1701 12.799 14.3229C13.4177 14.4757 14.0403 14.575 14.6667 14.6208V12.6042L12.5125 12.1687L10.9771 13.7042Z" fill="white"/>
</svg>
