<svg width="30" height="29" viewBox="0 0 30 29" fill="none" xmlns="http://www.w3.org/2000/svg">
<path d="M15 28.5L0 6C2.125 4.2 4.45625 2.75 6.99375 1.65C9.53125 0.55 12.2 0 15 0C17.8 0 20.4688 0.54375 23.0063 1.63125C25.5438 2.71875 27.875 4.175 30 6L15 28.5ZM15 23.1L25.95 6.675C24.325 5.55 22.5875 4.65625 20.7375 3.99375C18.8875 3.33125 16.975 3 15 3C13.025 3 11.1187 3.33125 9.28125 3.99375C7.44375 4.65625 5.7 5.55 4.05 6.675L15 23.1ZM11.25 10.5C11.875 10.5 12.4062 10.2812 12.8438 9.84375C13.2812 9.40625 13.5 8.875 13.5 8.25C13.5 7.625 13.2812 7.09375 12.8438 6.65625C12.4062 6.21875 11.875 6 11.25 6C10.625 6 10.0938 6.21875 9.65625 6.65625C9.21875 7.09375 9 7.625 9 8.25C9 8.875 9.21875 9.40625 9.65625 9.84375C10.0938 10.2812 10.625 10.5 11.25 10.5ZM15 18C15.625 18 16.1562 17.7812 16.5938 17.3438C17.0312 16.9062 17.25 16.375 17.25 15.75C17.25 15.125 17.0312 14.5938 16.5938 14.1562C16.1562 13.7188 15.625 13.5 15 13.5C14.375 13.5 13.8438 13.7188 13.4062 14.1562C12.9688 14.5938 12.75 15.125 12.75 15.75C12.75 16.375 12.9688 16.9062 13.4062 17.3438C13.8438 17.7812 14.375 18 15 18Z" fill="#FB8C00"/>
</svg>
