<svg width="72" height="68" viewBox="0 0 72 68" fill="none" xmlns="http://www.w3.org/2000/svg">
<path d="M40 76L0 16C5.66667 11.2 11.8833 7.33333 18.65 4.4C25.4167 1.46667 32.5333 0 40 0C47.4667 0 54.5833 1.45 61.35 4.35C68.1167 7.25 74.3333 11.1333 80 16L40 76ZM40 61.6L69.2 17.8C64.8667 14.8 60.2333 12.4167 55.3 10.65C50.3667 8.88333 45.2667 8 40 8C34.7333 8 29.65 8.88333 24.75 10.65C19.85 12.4167 15.2 14.8 10.8 17.8L40 61.6ZM30 28C31.6667 28 33.0833 27.4167 34.25 26.25C35.4167 25.0833 36 23.6667 36 22C36 20.3333 35.4167 18.9167 34.25 17.75C33.0833 16.5833 31.6667 16 30 16C28.3333 16 26.9167 16.5833 25.75 17.75C24.5833 18.9167 24 20.3333 24 22C24 23.6667 24.5833 25.0833 25.75 26.25C26.9167 27.4167 28.3333 28 30 28ZM40 48C41.6667 48 43.0833 47.4167 44.25 46.25C45.4167 45.0833 46 43.6667 46 42C46 40.3333 45.4167 38.9167 44.25 37.75C43.0833 36.5833 41.6667 36 40 36C38.3333 36 36.9167 36.5833 35.75 37.75C34.5833 38.9167 34 40.3333 34 42C34 43.6667 34.5833 45.0833 35.75 46.25C36.9167 47.4167 38.3333 48 40 48Z" fill="#d9dada"/>
</svg>
