<svg width="33" height="29" viewBox="0 0 33 29" fill="none" xmlns="http://www.w3.org/2000/svg">
<path d="M3 19.5C2.175 19.5 1.46875 19.2062 0.88125 18.6187C0.29375 18.0312 0 17.325 0 16.5V3C0 2.175 0.29375 1.46875 0.88125 0.88125C1.46875 0.29375 2.175 0 3 0H30C30.825 0 31.5313 0.29375 32.1188 0.88125C32.7063 1.46875 33 2.175 33 3V16.5C33 17.325 32.7063 18.0312 32.1188 18.6187C31.5313 19.2062 30.825 19.5 30 19.5H3ZM3 3V16.5H30V3H3ZM3.1125 24.75L3 22.5L29.9625 21.075L30.075 23.325L3.1125 24.75ZM3 28.4625V26.2125H30V28.4625H3ZM13.875 14.25C15.725 14.25 17.5063 13.925 19.2188 13.275C20.9312 12.625 22.425 11.625 23.7 10.275C23.85 11.325 24.4 12.125 25.35 12.675C26.3 13.225 27.35 13.5 28.5 13.5V6C27.35 6 26.3 6.28125 25.35 6.84375C24.4 7.40625 23.85 8.225 23.7 9.3C22.375 8 20.8687 7 19.1812 6.3C17.4937 5.6 15.725 5.25 13.875 5.25C11.9 5.25 10 5.59375 8.175 6.28125C6.35 6.96875 4.875 8.125 3.75 9.75C4.875 11.375 6.35 12.5312 8.175 13.2188C10 13.9062 11.9 14.25 13.875 14.25ZM3 3V16.5V3Z" fill="#1E88E5"/>
</svg>
