<svg width="80" height="69" viewBox="0 0 80 69" fill="none" xmlns="http://www.w3.org/2000/svg">
<path d="M8 52C5.8 52 3.91667 51.2167 2.35 49.65C0.783333 48.0833 0 46.2 0 44V8C0 5.8 0.783333 3.91667 2.35 2.35C3.91667 0.783333 5.8 0 8 0H80C82.2 0 84.0833 0.783333 85.65 2.35C87.2167 3.91667 88 5.8 88 8V44C88 46.2 87.2167 48.0833 85.65 49.65C84.0833 51.2167 82.2 52 80 52H8ZM8 8V44H80V8H8ZM8.3 66L8 60L79.9 56.2L80.2 62.2L8.3 66ZM8 75.9V69.9H80V75.9H8ZM37 38C41.9333 38 46.6833 37.1333 51.25 35.4C55.8167 33.6667 59.8 31 63.2 27.4C63.6 30.2 65.0667 32.3333 67.6 33.8C70.1333 35.2667 72.9333 36 76 36V16C72.9333 16 70.1333 16.75 67.6 18.25C65.0667 19.75 63.6 21.9333 63.2 24.8C59.6667 21.3333 55.65 18.6667 51.15 16.8C46.65 14.9333 41.9333 14 37 14C31.7333 14 26.6667 14.9167 21.8 16.75C16.9333 18.5833 13 21.6667 10 26C13 30.3333 16.9333 33.4167 21.8 35.25C26.6667 37.0833 31.7333 38 37 38ZM8 8V44V8Z" fill="#d9dada"/>
</svg>
